<mxfile host="app.diagrams.net" modified="2022-10-20T07:21:02.364Z" agent="5.0 (Macintosh; Intel Mac OS X 10_15_7) AppleWebKit/605.1.15 (KHTML, like Gecko) Version/14.1.2 Safari/605.1.15" etag="cffDK3yVjRDhPRY2_Ebp" version="20.4.0" type="github">
  <diagram id="rHWSBwgDxic3sp0LQW-M" name="Page-1">
    <mxGraphModel dx="828" dy="545" grid="1" gridSize="10" guides="1" tooltips="1" connect="1" arrows="1" fold="1" page="1" pageScale="1" pageWidth="827" pageHeight="1169" math="0" shadow="0">
      <root>
        <mxCell id="0" />
        <mxCell id="1" parent="0" />
        <mxCell id="0CucMFNqzlLVE-GyDGYr-5" value="Pracownik recepcji" style="swimlane;fontStyle=0;childLayout=stackLayout;horizontal=1;startSize=26;fillColor=none;horizontalStack=0;resizeParent=1;resizeParentMax=0;resizeLast=0;collapsible=1;marginBottom=0;fontSize=12;fontColor=#F57AC8;" vertex="1" parent="1">
          <mxGeometry x="240" y="80" width="180" height="162" as="geometry" />
        </mxCell>
        <mxCell id="0CucMFNqzlLVE-GyDGYr-6" value="field: type" style="text;strokeColor=none;fillColor=none;align=left;verticalAlign=top;spacingLeft=4;spacingRight=4;overflow=hidden;rotatable=0;points=[[0,0.5],[1,0.5]];portConstraint=eastwest;fontSize=12;fontColor=#F57AC8;" vertex="1" parent="0CucMFNqzlLVE-GyDGYr-5">
          <mxGeometry y="26" width="180" height="22" as="geometry" />
        </mxCell>
        <mxCell id="0CucMFNqzlLVE-GyDGYr-7" value="Imię [1..2] : str" style="text;strokeColor=none;fillColor=none;align=left;verticalAlign=top;spacingLeft=4;spacingRight=4;overflow=hidden;rotatable=0;points=[[0,0.5],[1,0.5]];portConstraint=eastwest;fontSize=12;fontColor=#F57AC8;" vertex="1" parent="0CucMFNqzlLVE-GyDGYr-5">
          <mxGeometry y="48" width="180" height="26" as="geometry" />
        </mxCell>
        <mxCell id="0CucMFNqzlLVE-GyDGYr-10" value="Nazwisko : str" style="text;strokeColor=none;fillColor=none;align=left;verticalAlign=top;spacingLeft=4;spacingRight=4;overflow=hidden;rotatable=0;points=[[0,0.5],[1,0.5]];portConstraint=eastwest;fontSize=12;fontColor=#F57AC8;" vertex="1" parent="0CucMFNqzlLVE-GyDGYr-5">
          <mxGeometry y="74" width="180" height="22" as="geometry" />
        </mxCell>
        <mxCell id="0CucMFNqzlLVE-GyDGYr-11" value="Nazwisko panieńskie [0..1] : str" style="text;strokeColor=none;fillColor=none;align=left;verticalAlign=top;spacingLeft=4;spacingRight=4;overflow=hidden;rotatable=0;points=[[0,0.5],[1,0.5]];portConstraint=eastwest;fontSize=12;fontColor=#F57AC8;" vertex="1" parent="0CucMFNqzlLVE-GyDGYr-5">
          <mxGeometry y="96" width="180" height="22" as="geometry" />
        </mxCell>
        <mxCell id="0CucMFNqzlLVE-GyDGYr-12" value="/ Wiek : int" style="text;strokeColor=none;fillColor=none;align=left;verticalAlign=top;spacingLeft=4;spacingRight=4;overflow=hidden;rotatable=0;points=[[0,0.5],[1,0.5]];portConstraint=eastwest;fontSize=12;fontColor=#F57AC8;" vertex="1" parent="0CucMFNqzlLVE-GyDGYr-5">
          <mxGeometry y="118" width="180" height="22" as="geometry" />
        </mxCell>
        <mxCell id="0CucMFNqzlLVE-GyDGYr-13" value="PESEL {unique} : str" style="text;strokeColor=none;fillColor=none;align=left;verticalAlign=top;spacingLeft=4;spacingRight=4;overflow=hidden;rotatable=0;points=[[0,0.5],[1,0.5]];portConstraint=eastwest;fontSize=12;fontColor=#F57AC8;" vertex="1" parent="0CucMFNqzlLVE-GyDGYr-5">
          <mxGeometry y="140" width="180" height="22" as="geometry" />
        </mxCell>
        <mxCell id="0CucMFNqzlLVE-GyDGYr-15" value="Rzecz &lt;&lt;abstract&gt;&gt;" style="swimlane;fontStyle=2;childLayout=stackLayout;horizontal=1;startSize=26;fillColor=none;horizontalStack=0;resizeParent=1;resizeParentMax=0;resizeLast=0;collapsible=1;marginBottom=0;fontSize=12;fontColor=#F57AC8;" vertex="1" parent="1">
          <mxGeometry x="240" y="280" width="180" height="48" as="geometry" />
        </mxCell>
        <mxCell id="0CucMFNqzlLVE-GyDGYr-16" value="pole_powierzchni : float" style="text;strokeColor=none;fillColor=none;align=left;verticalAlign=top;spacingLeft=4;spacingRight=4;overflow=hidden;rotatable=0;points=[[0,0.5],[1,0.5]];portConstraint=eastwest;fontSize=12;fontColor=#F57AC8;" vertex="1" parent="0CucMFNqzlLVE-GyDGYr-15">
          <mxGeometry y="26" width="180" height="22" as="geometry" />
        </mxCell>
        <mxCell id="0CucMFNqzlLVE-GyDGYr-36" style="edgeStyle=orthogonalEdgeStyle;rounded=0;orthogonalLoop=1;jettySize=auto;html=1;entryX=0;entryY=0.5;entryDx=0;entryDy=0;fontSize=12;fontColor=#F57AC8;startArrow=none;startFill=0;endArrow=block;endFill=0;" edge="1" parent="1" source="0CucMFNqzlLVE-GyDGYr-22" target="0CucMFNqzlLVE-GyDGYr-16">
          <mxGeometry relative="1" as="geometry" />
        </mxCell>
        <mxCell id="0CucMFNqzlLVE-GyDGYr-22" value="Pomieszczenie" style="swimlane;fontStyle=0;childLayout=stackLayout;horizontal=1;startSize=26;fillColor=none;horizontalStack=0;resizeParent=1;resizeParentMax=0;resizeLast=0;collapsible=1;marginBottom=0;fontSize=12;fontColor=#F57AC8;" vertex="1" parent="1">
          <mxGeometry x="60" y="474" width="140" height="78" as="geometry" />
        </mxCell>
        <mxCell id="0CucMFNqzlLVE-GyDGYr-23" value="liczbaDrzwi : int" style="text;strokeColor=none;fillColor=none;align=left;verticalAlign=top;spacingLeft=4;spacingRight=4;overflow=hidden;rotatable=0;points=[[0,0.5],[1,0.5]];portConstraint=eastwest;fontSize=12;fontColor=#F57AC8;" vertex="1" parent="0CucMFNqzlLVE-GyDGYr-22">
          <mxGeometry y="26" width="140" height="26" as="geometry" />
        </mxCell>
        <mxCell id="0CucMFNqzlLVE-GyDGYr-24" value="czyOkna : bool" style="text;strokeColor=none;fillColor=none;align=left;verticalAlign=top;spacingLeft=4;spacingRight=4;overflow=hidden;rotatable=0;points=[[0,0.5],[1,0.5]];portConstraint=eastwest;fontSize=12;fontColor=#F57AC8;" vertex="1" parent="0CucMFNqzlLVE-GyDGYr-22">
          <mxGeometry y="52" width="140" height="26" as="geometry" />
        </mxCell>
        <mxCell id="0CucMFNqzlLVE-GyDGYr-35" style="edgeStyle=orthogonalEdgeStyle;rounded=0;orthogonalLoop=1;jettySize=auto;html=1;entryX=0.44;entryY=1.02;entryDx=0;entryDy=0;entryPerimeter=0;fontSize=12;fontColor=#F57AC8;startArrow=none;startFill=0;endArrow=block;endFill=0;" edge="1" parent="1" source="0CucMFNqzlLVE-GyDGYr-26" target="0CucMFNqzlLVE-GyDGYr-16">
          <mxGeometry relative="1" as="geometry" />
        </mxCell>
        <mxCell id="0CucMFNqzlLVE-GyDGYr-26" value="miejsceParkingowe" style="swimlane;fontStyle=0;childLayout=stackLayout;horizontal=1;startSize=26;fillColor=none;horizontalStack=0;resizeParent=1;resizeParentMax=0;resizeLast=0;collapsible=1;marginBottom=0;fontSize=12;fontColor=#F57AC8;" vertex="1" parent="1">
          <mxGeometry x="250" y="474" width="140" height="52" as="geometry" />
        </mxCell>
        <mxCell id="0CucMFNqzlLVE-GyDGYr-27" value="numer : int" style="text;strokeColor=none;fillColor=none;align=left;verticalAlign=top;spacingLeft=4;spacingRight=4;overflow=hidden;rotatable=0;points=[[0,0.5],[1,0.5]];portConstraint=eastwest;fontSize=12;fontColor=#F57AC8;" vertex="1" parent="0CucMFNqzlLVE-GyDGYr-26">
          <mxGeometry y="26" width="140" height="26" as="geometry" />
        </mxCell>
        <mxCell id="0CucMFNqzlLVE-GyDGYr-34" style="edgeStyle=orthogonalEdgeStyle;rounded=0;orthogonalLoop=1;jettySize=auto;html=1;fontSize=12;fontColor=#F57AC8;startArrow=none;startFill=0;endArrow=block;endFill=0;" edge="1" parent="1" source="0CucMFNqzlLVE-GyDGYr-30" target="0CucMFNqzlLVE-GyDGYr-16">
          <mxGeometry relative="1" as="geometry" />
        </mxCell>
        <mxCell id="0CucMFNqzlLVE-GyDGYr-30" value="Pojazd &lt;&lt;abstract&gt;&gt;" style="swimlane;fontStyle=2;childLayout=stackLayout;horizontal=1;startSize=26;fillColor=none;horizontalStack=0;resizeParent=1;resizeParentMax=0;resizeLast=0;collapsible=1;marginBottom=0;fontSize=12;fontColor=#F57AC8;" vertex="1" parent="1">
          <mxGeometry x="440" y="474" width="140" height="78" as="geometry" />
        </mxCell>
        <mxCell id="0CucMFNqzlLVE-GyDGYr-31" value="typSilnika: str" style="text;strokeColor=none;fillColor=none;align=left;verticalAlign=top;spacingLeft=4;spacingRight=4;overflow=hidden;rotatable=0;points=[[0,0.5],[1,0.5]];portConstraint=eastwest;fontSize=12;fontColor=#F57AC8;" vertex="1" parent="0CucMFNqzlLVE-GyDGYr-30">
          <mxGeometry y="26" width="140" height="26" as="geometry" />
        </mxCell>
        <mxCell id="0CucMFNqzlLVE-GyDGYr-32" value="kolor : str" style="text;strokeColor=none;fillColor=none;align=left;verticalAlign=top;spacingLeft=4;spacingRight=4;overflow=hidden;rotatable=0;points=[[0,0.5],[1,0.5]];portConstraint=eastwest;fontSize=12;fontColor=#F57AC8;" vertex="1" parent="0CucMFNqzlLVE-GyDGYr-30">
          <mxGeometry y="52" width="140" height="26" as="geometry" />
        </mxCell>
        <mxCell id="0CucMFNqzlLVE-GyDGYr-46" style="edgeStyle=orthogonalEdgeStyle;rounded=0;orthogonalLoop=1;jettySize=auto;html=1;entryX=0;entryY=0.5;entryDx=0;entryDy=0;fontSize=12;fontColor=#F57AC8;startArrow=none;startFill=0;endArrow=block;endFill=0;" edge="1" parent="1" source="0CucMFNqzlLVE-GyDGYr-37" target="0CucMFNqzlLVE-GyDGYr-32">
          <mxGeometry relative="1" as="geometry" />
        </mxCell>
        <mxCell id="0CucMFNqzlLVE-GyDGYr-37" value="Samochód" style="swimlane;fontStyle=0;childLayout=stackLayout;horizontal=1;startSize=26;fillColor=none;horizontalStack=0;resizeParent=1;resizeParentMax=0;resizeLast=0;collapsible=1;marginBottom=0;fontSize=12;fontColor=#F57AC8;" vertex="1" parent="1">
          <mxGeometry x="280" y="600" width="140" height="52" as="geometry" />
        </mxCell>
        <mxCell id="0CucMFNqzlLVE-GyDGYr-38" value="spalanie : float" style="text;strokeColor=none;fillColor=none;align=left;verticalAlign=top;spacingLeft=4;spacingRight=4;overflow=hidden;rotatable=0;points=[[0,0.5],[1,0.5]];portConstraint=eastwest;fontSize=12;fontColor=#F57AC8;" vertex="1" parent="0CucMFNqzlLVE-GyDGYr-37">
          <mxGeometry y="26" width="140" height="26" as="geometry" />
        </mxCell>
        <mxCell id="0CucMFNqzlLVE-GyDGYr-47" style="edgeStyle=orthogonalEdgeStyle;rounded=0;orthogonalLoop=1;jettySize=auto;html=1;fontSize=12;fontColor=#F57AC8;startArrow=none;startFill=0;endArrow=block;endFill=0;" edge="1" parent="1" source="0CucMFNqzlLVE-GyDGYr-40" target="0CucMFNqzlLVE-GyDGYr-32">
          <mxGeometry relative="1" as="geometry" />
        </mxCell>
        <mxCell id="0CucMFNqzlLVE-GyDGYr-40" value="Motocykl" style="swimlane;fontStyle=0;childLayout=stackLayout;horizontal=1;startSize=26;fillColor=none;horizontalStack=0;resizeParent=1;resizeParentMax=0;resizeLast=0;collapsible=1;marginBottom=0;fontSize=12;fontColor=#F57AC8;" vertex="1" parent="1">
          <mxGeometry x="440" y="600" width="140" height="52" as="geometry" />
        </mxCell>
        <mxCell id="0CucMFNqzlLVE-GyDGYr-41" value="typOpon: str" style="text;strokeColor=none;fillColor=none;align=left;verticalAlign=top;spacingLeft=4;spacingRight=4;overflow=hidden;rotatable=0;points=[[0,0.5],[1,0.5]];portConstraint=eastwest;fontSize=12;fontColor=#F57AC8;" vertex="1" parent="0CucMFNqzlLVE-GyDGYr-40">
          <mxGeometry y="26" width="140" height="26" as="geometry" />
        </mxCell>
        <mxCell id="0CucMFNqzlLVE-GyDGYr-48" style="edgeStyle=orthogonalEdgeStyle;rounded=0;orthogonalLoop=1;jettySize=auto;html=1;entryX=1.006;entryY=0.808;entryDx=0;entryDy=0;entryPerimeter=0;fontSize=12;fontColor=#F57AC8;startArrow=none;startFill=0;endArrow=block;endFill=0;" edge="1" parent="1" source="0CucMFNqzlLVE-GyDGYr-43" target="0CucMFNqzlLVE-GyDGYr-31">
          <mxGeometry relative="1" as="geometry" />
        </mxCell>
        <mxCell id="0CucMFNqzlLVE-GyDGYr-43" value="Łódź" style="swimlane;fontStyle=0;childLayout=stackLayout;horizontal=1;startSize=26;fillColor=none;horizontalStack=0;resizeParent=1;resizeParentMax=0;resizeLast=0;collapsible=1;marginBottom=0;fontSize=12;fontColor=#F57AC8;" vertex="1" parent="1">
          <mxGeometry x="600" y="600" width="140" height="52" as="geometry" />
        </mxCell>
        <mxCell id="0CucMFNqzlLVE-GyDGYr-44" value="wyporność : float" style="text;strokeColor=none;fillColor=none;align=left;verticalAlign=top;spacingLeft=4;spacingRight=4;overflow=hidden;rotatable=0;points=[[0,0.5],[1,0.5]];portConstraint=eastwest;fontSize=12;fontColor=#F57AC8;" vertex="1" parent="0CucMFNqzlLVE-GyDGYr-43">
          <mxGeometry y="26" width="140" height="26" as="geometry" />
        </mxCell>
        <mxCell id="0CucMFNqzlLVE-GyDGYr-51" style="edgeStyle=orthogonalEdgeStyle;rounded=0;orthogonalLoop=1;jettySize=auto;html=1;entryX=0.455;entryY=0.973;entryDx=0;entryDy=0;entryPerimeter=0;fontSize=12;fontColor=#F57AC8;startArrow=none;startFill=0;endArrow=block;endFill=0;" edge="1" parent="1" source="0CucMFNqzlLVE-GyDGYr-49" target="0CucMFNqzlLVE-GyDGYr-38">
          <mxGeometry relative="1" as="geometry" />
        </mxCell>
        <mxCell id="0CucMFNqzlLVE-GyDGYr-52" style="edgeStyle=orthogonalEdgeStyle;rounded=0;orthogonalLoop=1;jettySize=auto;html=1;entryX=0.602;entryY=0.973;entryDx=0;entryDy=0;entryPerimeter=0;fontSize=12;fontColor=#F57AC8;startArrow=none;startFill=0;endArrow=block;endFill=0;" edge="1" parent="1" source="0CucMFNqzlLVE-GyDGYr-49" target="0CucMFNqzlLVE-GyDGYr-44">
          <mxGeometry relative="1" as="geometry" />
        </mxCell>
        <mxCell id="0CucMFNqzlLVE-GyDGYr-49" value="Amfibia" style="swimlane;fontStyle=0;childLayout=stackLayout;horizontal=1;startSize=26;fillColor=none;horizontalStack=0;resizeParent=1;resizeParentMax=0;resizeLast=0;collapsible=1;marginBottom=0;fontSize=12;fontColor=#F57AC8;" vertex="1" parent="1">
          <mxGeometry x="440" y="710" width="140" height="52" as="geometry" />
        </mxCell>
        <mxCell id="0CucMFNqzlLVE-GyDGYr-50" value="wieżyczka : bool" style="text;strokeColor=none;fillColor=none;align=left;verticalAlign=top;spacingLeft=4;spacingRight=4;overflow=hidden;rotatable=0;points=[[0,0.5],[1,0.5]];portConstraint=eastwest;fontSize=12;fontColor=#F57AC8;" vertex="1" parent="0CucMFNqzlLVE-GyDGYr-49">
          <mxGeometry y="26" width="140" height="26" as="geometry" />
        </mxCell>
      </root>
    </mxGraphModel>
  </diagram>
</mxfile>
